<?xml version="1.0" encoding="utf-8"?>
<svg shape-rendering="geometricPrecision" text-rendering="geometricPrecision" image-rendering="optimizeQuality" fill-rule="evenodd" clip-rule="evenodd" viewBox="0 0 512 507.68" xmlns="http://www.w3.org/2000/svg">
  <path d="M 20.291 391.929 L 99.237 116.264 L 200.616 116.264 L 279.131 391.929 L 210.97 391.929 L 152.515 160.699 L 147.554 160.699 L 88.452 391.929 L 20.291 391.929 Z" style="fill: #00c791; white-space: pre;"/>
  <path fill-rule="nonzero" d="M 347.977 391.468 L 409.759 391.468 C 421.976 391.468 431.993 379.867 431.993 365.713 L 431.993 274.336 L 475.453 274.336 C 482.853 273.965 488.117 271.121 491.149 265.776 C 499.391 251.464 488.148 237.328 480.343 227.366 C 458.196 199.212 403.928 131.562 393.007 116.668 C 384.718 106.054 372.932 106.054 364.645 116.668 C 353.359 131.933 296.368 202.68 275.316 230.064 C 268.009 239.592 258.989 252.588 266.588 265.776 C 269.696 271.121 274.895 273.965 282.308 274.336 L 325.745 274.336 L 325.745 365.713 C 325.745 379.867 335.752 391.468 347.977 391.468 Z" style="fill: #00c791;" transform="matrix(-1, 0, 0, -1, 757.741963, 500.175528)"/>
  <rect x="79.988" y="271.152" width="124.914" height="50.904" style="fill: #00c791;"/>
</svg>