<svg xmlns="http://www.w3.org/2000/svg" shape-rendering="geometricPrecision" text-rendering="geometricPrecision"
     image-rendering="optimizeQuality" fill-rule="evenodd" clip-rule="evenodd" viewBox="0 0 391 511.92">
    <path fill="#333" fill-rule="nonzero"
          d="M299.2 200.64v-27.23c0-14.97-2.84-29.22-7.97-42.15-10.39-26.18-30.59-47.97-56.53-59.25-24.92-10.83-53.53-10.83-78.44.01-25.91 11.26-46.14 33.06-56.52 59.23-5.13 12.93-7.98 27.18-7.98 42.16v27.23H27.85v-27.23c0-23.21 4.5-45.46 12.64-65.82 16.75-41.9 49.28-76.33 90.79-94.32 40.87-17.7 87.58-17.69 128.45.01 41.49 17.97 74.01 52.45 90.77 94.31a177.081 177.081 0 0 1 12.65 65.82v27.23H299.2z"/>
    <path fill="#F44336"
          d="M26.19 200.64h338.62c14.4 0 26.19 11.79 26.19 26.19v258.9c0 14.41-11.79 26.19-26.19 26.19H26.19C11.77 511.92 0 500.14 0 485.73v-258.9c-.01-14.42 11.78-26.19 26.19-26.19z"/>
    <path fill="#fff"
          d="m270.12 410.51-20.34 20.35c-4.17 4.15-11.01 4.08-15.1 0l-39.19-39.16-39.17 39.17c-4.17 4.16-11.01 4.09-15.09 0l-20.35-20.34c-4.13-4.18-4.14-10.93.02-15.08l39.17-39.18-39.15-39.18c-4.14-4.17-4.14-10.92.01-15.08l20.35-20.34c4.17-4.13 10.9-4.13 15.06 0l39.15 39.18 39.2-39.2c4.16-4.13 10.89-4.12 15.07 0L270.1 302c4.15 4.16 4.16 10.91.01 15.08l-39.19 39.19 39.19 39.16c4.15 4.17 4.15 10.9.01 15.08z"/>
</svg>