<svg xmlns="http://www.w3.org/2000/svg" xmlns:xlink="http://www.w3.org/1999/xlink" width="400" zoomAndPan="magnify" viewBox="0 0 300 149.999998" height="200" preserveAspectRatio="xMidYMid meet" version="1.0"><defs><clipPath id="id1"><path d="M 8 0 L 292 0 L 292 147 L 8 147 Z M 8 0 " clip-rule="nonzero"/></clipPath><clipPath id="id2"><path d="M 8.25 73.605469 C 8.25 114.203125 71.746094 147.113281 150.070312 147.113281 C 228.390625 147.113281 291.890625 114.203125 291.890625 73.605469 C 291.890625 33.007812 228.390625 0.0976562 150.070312 0.0976562 C 71.746094 0.0976562 8.25 33.007812 8.25 73.605469 " clip-rule="nonzero"/></clipPath><clipPath id="id3"><path d="M 8.25 73.605469 C 8.25 114.203125 71.746094 147.113281 150.070312 147.113281 C 228.390625 147.113281 291.890625 114.203125 291.890625 73.605469 C 291.890625 33.007812 228.390625 0.0976562 150.070312 0.0976562 C 71.746094 0.0976562 8.25 33.007812 8.25 73.605469 " clip-rule="nonzero"/></clipPath><radialGradient gradientTransform="matrix(1.007388, 0, 0, 0.992612, 93.39924, 25.938845)" gradientUnits="userSpaceOnUse" r="184.865422" cx="0" id="id4" cy="0" fx="0" fy="0"><stop stop-opacity="1" stop-color="rgb(0%, 0%, 0%)" offset="0"/><stop stop-opacity="1" stop-color="rgb(0%, 0%, 0%)" offset="1"/></radialGradient></defs><g clip-path="url(#id1)"><g clip-path="url(#id2)"><g clip-path="url(#id3)"><path fill="url(#id4)" d="M 8.25 0.0976562 L 8.25 147 L 291.890625 147 L 291.890625 0.0976562 Z M 8.25 0.0976562 " fill-rule="nonzero"/></g></g></g><path fill="#ffffff" d="M 150.070312 141.65625 C 225.335938 141.65625 286.351562 111.1875 286.351562 73.605469 C 286.351562 36.023438 225.335938 5.554688 150.070312 5.554688 C 74.804688 5.554688 13.789062 36.023438 13.789062 73.605469 C 13.789062 111.1875 74.804688 141.65625 150.070312 141.65625 " fill-opacity="1" fill-rule="nonzero"/><path fill="#000000" d="M 85.300781 82.042969 C 91.488281 82.042969 96.109375 80.917969 99.03125 78.699219 C 101.921875 76.507812 103.921875 72.703125 104.96875 67.402344 C 105.945312 62.445312 105.570312 58.984375 103.863281 57.117188 C 102.117188 55.210938 98.335938 54.242188 92.632812 54.242188 L 82.742188 54.242188 L 77.261719 82.042969 Z M 52.953125 116.285156 C 52.492188 116.285156 52.058594 116.082031 51.765625 115.734375 C 51.457031 115.367188 51.351562 114.949219 51.441406 114.480469 L 65.972656 40.8125 C 66.042969 40.457031 66.222656 40.164062 66.503906 39.933594 C 66.789062 39.703125 67.117188 39.585938 67.484375 39.585938 L 98.800781 39.585938 C 108.644531 39.585938 115.96875 42.214844 120.574219 47.414062 C 125.203125 52.636719 126.632812 59.933594 124.824219 69.109375 C 124.085938 72.84375 122.820312 76.316406 121.058594 79.421875 C 119.292969 82.535156 116.964844 85.414062 114.128906 87.980469 C 110.734375 91.109375 106.894531 93.378906 102.722656 94.714844 C 98.617188 96.03125 93.347656 96.699219 87.054688 96.699219 L 74.371094 96.699219 L 70.75 115.058594 C 70.679688 115.414062 70.503906 115.707031 70.21875 115.941406 C 69.933594 116.171875 69.609375 116.285156 69.242188 116.285156 L 52.949219 116.285156 Z M 52.953125 116.285156 " fill-opacity="1" fill-rule="nonzero"/><path fill="#ffffff" d="M 84.011719 55.757812 L 92.632812 55.757812 C 99.519531 55.757812 101.910156 57.246094 102.722656 58.132812 C 104.070312 59.605469 104.324219 62.710938 103.457031 67.113281 C 102.484375 72.042969 100.679688 75.535156 98.09375 77.5 C 95.445312 79.507812 91.140625 80.523438 85.300781 80.523438 L 79.128906 80.523438 L 84.015625 55.757812 Z M 98.800781 38.070312 L 67.484375 38.070312 C 67.128906 38.070312 66.78125 38.128906 66.445312 38.246094 C 66.109375 38.367188 65.804688 38.539062 65.527344 38.761719 C 65.253906 38.984375 65.023438 39.25 64.839844 39.550781 C 64.65625 39.855469 64.53125 40.175781 64.464844 40.523438 L 49.933594 114.195312 C 49.890625 114.414062 49.871094 114.632812 49.878906 114.859375 C 49.886719 115.082031 49.917969 115.300781 49.972656 115.519531 C 50.027344 115.734375 50.109375 115.945312 50.210938 116.144531 C 50.3125 116.34375 50.4375 116.527344 50.582031 116.699219 C 50.726562 116.875 50.886719 117.027344 51.066406 117.164062 C 51.246094 117.304688 51.4375 117.417969 51.640625 117.515625 C 51.847656 117.609375 52.0625 117.683594 52.28125 117.730469 C 52.503906 117.78125 52.726562 117.804688 52.953125 117.804688 L 69.242188 117.804688 C 69.597656 117.804688 69.945312 117.746094 70.28125 117.625 C 70.617188 117.507812 70.921875 117.335938 71.199219 117.113281 C 71.472656 116.886719 71.703125 116.625 71.886719 116.324219 C 72.070312 116.019531 72.195312 115.695312 72.261719 115.351562 L 75.640625 98.21875 L 87.054688 98.21875 C 93.507812 98.21875 98.941406 97.527344 103.203125 96.160156 C 107.582031 94.757812 111.613281 92.378906 115.179688 89.089844 C 118.132812 86.414062 120.566406 83.414062 122.402344 80.167969 C 124.242188 76.917969 125.570312 73.296875 126.335938 69.398438 C 128.242188 59.746094 126.695312 52.011719 121.734375 46.421875 C 116.824219 40.882812 109.109375 38.074219 98.804688 38.074219 M 75.398438 83.5625 L 85.304688 83.5625 C 91.867188 83.5625 96.761719 82.34375 99.972656 79.90625 C 103.1875 77.46875 105.355469 73.398438 106.480469 67.695312 C 107.558594 62.222656 107.070312 58.359375 105.011719 56.105469 C 102.949219 53.855469 98.824219 52.730469 92.636719 52.730469 L 81.480469 52.730469 L 75.398438 83.5625 M 98.804688 41.105469 C 108.226562 41.105469 115.097656 43.542969 119.417969 48.414062 C 123.738281 53.285156 125.039062 60.089844 123.316406 68.820312 C 122.605469 72.417969 121.40625 75.707031 119.71875 78.6875 C 118.027344 81.667969 115.816406 84.394531 113.089844 86.867188 C 109.835938 89.863281 106.222656 92 102.25 93.273438 C 98.273438 94.550781 93.210938 95.1875 87.054688 95.1875 L 73.105469 95.1875 L 69.242188 114.773438 L 52.957031 114.773438 L 67.488281 41.109375 L 98.808594 41.109375 " fill-opacity="1" fill-rule="nonzero"/><path fill="#000000" d="M 162.164062 96.699219 C 161.707031 96.699219 161.269531 96.496094 160.976562 96.144531 C 160.6875 95.796875 160.566406 95.335938 160.65625 94.894531 L 167.082031 62.296875 C 167.695312 59.199219 167.542969 56.972656 166.65625 56.035156 C 166.117188 55.457031 164.488281 54.496094 159.679688 54.496094 L 148.035156 54.496094 L 139.953125 95.46875 C 139.882812 95.828125 139.703125 96.121094 139.421875 96.351562 C 139.136719 96.582031 138.808594 96.699219 138.441406 96.699219 L 122.285156 96.699219 C 122.054688 96.699219 121.835938 96.648438 121.628906 96.554688 C 121.417969 96.457031 121.242188 96.320312 121.097656 96.144531 C 120.949219 95.972656 120.847656 95.773438 120.792969 95.554688 C 120.734375 95.335938 120.730469 95.113281 120.773438 94.890625 L 135.304688 21.226562 C 135.375 20.871094 135.550781 20.578125 135.835938 20.347656 C 136.121094 20.117188 136.445312 20 136.8125 20 L 152.972656 20 C 153.203125 20 153.421875 20.046875 153.628906 20.144531 C 153.835938 20.242188 154.011719 20.378906 154.160156 20.550781 C 154.304688 20.726562 154.40625 20.921875 154.464844 21.144531 C 154.519531 21.363281 154.527344 21.582031 154.484375 21.804688 L 150.976562 39.585938 L 163.503906 39.585938 C 173.046875 39.585938 179.519531 41.242188 183.289062 44.652344 C 187.136719 48.132812 188.328125 53.695312 186.851562 61.191406 L 180.089844 95.472656 C 180.019531 95.828125 179.84375 96.121094 179.558594 96.351562 C 179.273438 96.582031 178.949219 96.699219 178.578125 96.699219 Z M 162.164062 96.699219 " fill-opacity="1" fill-rule="nonzero"/><path fill="#ffffff" d="M 152.972656 18.484375 L 136.816406 18.484375 C 136.457031 18.484375 136.113281 18.542969 135.773438 18.664062 C 135.4375 18.78125 135.132812 18.953125 134.859375 19.175781 C 134.582031 19.398438 134.351562 19.664062 134.171875 19.964844 C 133.988281 20.269531 133.863281 20.59375 133.792969 20.9375 L 119.261719 94.601562 C 119.21875 94.824219 119.203125 95.042969 119.207031 95.269531 C 119.214844 95.492188 119.246094 95.710938 119.300781 95.929688 C 119.355469 96.144531 119.4375 96.351562 119.539062 96.550781 C 119.640625 96.753906 119.765625 96.9375 119.910156 97.109375 C 120.054688 97.285156 120.214844 97.4375 120.394531 97.574219 C 120.574219 97.710938 120.765625 97.828125 120.972656 97.925781 C 121.175781 98.019531 121.390625 98.09375 121.613281 98.140625 C 121.832031 98.191406 122.058594 98.214844 122.285156 98.214844 L 138.441406 98.214844 C 138.800781 98.214844 139.144531 98.15625 139.480469 98.035156 C 139.820312 97.917969 140.125 97.746094 140.398438 97.523438 C 140.675781 97.296875 140.90625 97.035156 141.085938 96.730469 C 141.269531 96.429688 141.394531 96.105469 141.464844 95.761719 L 149.304688 56.011719 L 159.679688 56.011719 C 164.484375 56.011719 165.492188 57.023438 165.53125 57.066406 C 165.824219 57.375 166.207031 58.804688 165.574219 62.007812 L 159.144531 94.601562 C 159.101562 94.824219 159.085938 95.042969 159.089844 95.269531 C 159.097656 95.492188 159.128906 95.710938 159.183594 95.929688 C 159.238281 96.144531 159.320312 96.351562 159.421875 96.550781 C 159.523438 96.753906 159.648438 96.9375 159.792969 97.109375 C 159.9375 97.285156 160.097656 97.4375 160.277344 97.574219 C 160.457031 97.710938 160.648438 97.828125 160.855469 97.925781 C 161.058594 98.019531 161.273438 98.09375 161.496094 98.140625 C 161.714844 98.191406 161.941406 98.214844 162.167969 98.214844 L 178.582031 98.214844 C 178.9375 98.214844 179.285156 98.15625 179.621094 98.035156 C 179.957031 97.917969 180.261719 97.746094 180.539062 97.523438 C 180.816406 97.296875 181.042969 97.035156 181.226562 96.730469 C 181.410156 96.429688 181.535156 96.105469 181.601562 95.761719 L 188.363281 61.480469 C 189.949219 53.433594 188.59375 47.398438 184.332031 43.539062 C 180.265625 39.859375 173.453125 38.070312 163.507812 38.070312 L 152.84375 38.070312 L 155.996094 22.09375 C 156.039062 21.875 156.058594 21.652344 156.050781 21.429688 C 156.042969 21.207031 156.015625 20.984375 155.957031 20.769531 C 155.902344 20.550781 155.824219 20.34375 155.71875 20.144531 C 155.617188 19.945312 155.492188 19.757812 155.351562 19.585938 C 155.207031 19.414062 155.042969 19.257812 154.863281 19.121094 C 154.683594 18.984375 154.492188 18.867188 154.289062 18.773438 C 154.082031 18.675781 153.867188 18.605469 153.648438 18.558594 C 153.425781 18.507812 153.203125 18.484375 152.976562 18.484375 M 152.976562 21.515625 L 149.113281 41.101562 L 163.507812 41.101562 C 172.5625 41.101562 178.8125 42.660156 182.25 45.769531 C 185.6875 48.882812 186.71875 53.929688 185.34375 60.902344 L 178.582031 95.179688 L 162.167969 95.179688 L 168.597656 62.585938 C 169.328125 58.878906 169.058594 56.351562 167.789062 55.003906 C 166.519531 53.652344 163.816406 52.980469 159.679688 52.980469 L 146.765625 52.980469 L 138.441406 95.179688 L 122.285156 95.179688 L 136.816406 21.515625 L 152.972656 21.515625 " fill-opacity="1" fill-rule="nonzero"/><path fill="#000000" d="M 212.417969 82.042969 C 218.609375 82.042969 223.226562 80.917969 226.148438 78.699219 C 229.042969 76.507812 231.039062 72.707031 232.085938 67.402344 C 233.0625 62.445312 232.691406 58.984375 230.980469 57.117188 C 229.234375 55.210938 225.457031 54.242188 219.75 54.242188 L 209.863281 54.242188 L 204.378906 82.042969 Z M 180.070312 116.285156 C 179.613281 116.285156 179.175781 116.082031 178.882812 115.730469 C 178.578125 115.363281 178.46875 114.945312 178.558594 114.476562 L 193.089844 40.8125 C 193.160156 40.457031 193.339844 40.164062 193.625 39.933594 C 193.90625 39.699219 194.234375 39.585938 194.601562 39.585938 L 225.917969 39.585938 C 235.761719 39.585938 243.089844 42.214844 247.691406 47.414062 C 252.324219 52.632812 253.75 59.933594 251.941406 69.105469 C 251.203125 72.84375 249.9375 76.3125 248.175781 79.421875 C 246.410156 82.53125 244.082031 85.410156 241.246094 87.980469 C 237.851562 91.109375 234.011719 93.378906 229.839844 94.714844 C 225.734375 96.03125 220.464844 96.699219 214.171875 96.699219 L 201.480469 96.699219 L 197.859375 115.058594 C 197.789062 115.414062 197.613281 115.707031 197.328125 115.9375 C 197.042969 116.167969 196.71875 116.285156 196.347656 116.285156 L 180.0625 116.285156 Z M 180.070312 116.285156 " fill-opacity="1" fill-rule="nonzero"/><path fill="#ffffff" d="M 211.132812 55.757812 L 219.753906 55.757812 C 226.636719 55.757812 229.027344 57.246094 229.839844 58.132812 C 231.191406 59.605469 231.445312 62.710938 230.578125 67.113281 C 229.605469 72.042969 227.796875 75.535156 225.210938 77.5 C 222.566406 79.507812 218.261719 80.523438 212.417969 80.523438 L 206.246094 80.523438 Z M 225.917969 38.070312 L 194.601562 38.070312 C 194.246094 38.070312 193.898438 38.128906 193.5625 38.246094 C 193.226562 38.367188 192.921875 38.539062 192.644531 38.761719 C 192.367188 38.984375 192.140625 39.25 191.957031 39.550781 C 191.773438 39.855469 191.648438 40.175781 191.582031 40.523438 L 177.050781 114.195312 C 177.007812 114.414062 176.988281 114.632812 176.996094 114.859375 C 177 115.082031 177.03125 115.300781 177.085938 115.519531 C 177.144531 115.734375 177.222656 115.945312 177.324219 116.144531 C 177.429688 116.34375 177.550781 116.527344 177.695312 116.699219 C 177.839844 116.875 178.003906 117.027344 178.179688 117.164062 C 178.359375 117.304688 178.550781 117.417969 178.757812 117.515625 C 178.964844 117.609375 179.175781 117.683594 179.398438 117.730469 C 179.617188 117.78125 179.84375 117.804688 180.070312 117.804688 L 196.355469 117.804688 C 196.714844 117.804688 197.058594 117.746094 197.394531 117.625 C 197.734375 117.507812 198.039062 117.335938 198.3125 117.113281 C 198.589844 116.886719 198.820312 116.625 199 116.324219 C 199.183594 116.019531 199.308594 115.695312 199.378906 115.351562 L 202.757812 98.21875 L 214.167969 98.21875 C 220.625 98.21875 226.054688 97.527344 230.316406 96.160156 C 234.699219 94.757812 238.730469 92.378906 242.296875 89.089844 C 245.246094 86.414062 247.675781 83.414062 249.519531 80.167969 C 251.359375 76.917969 252.683594 73.296875 253.453125 69.398438 C 255.359375 59.742188 253.808594 52.011719 248.851562 46.417969 C 243.941406 40.882812 236.226562 38.074219 225.917969 38.074219 M 202.511719 83.5625 L 212.417969 83.5625 C 218.984375 83.5625 223.875 82.34375 227.089844 79.90625 C 230.300781 77.46875 232.46875 73.398438 233.597656 67.695312 C 234.675781 62.222656 234.183594 58.359375 232.125 56.105469 C 230.066406 53.855469 225.9375 52.730469 219.753906 52.730469 L 208.59375 52.730469 L 202.511719 83.5625 M 225.917969 41.105469 C 235.339844 41.105469 242.214844 43.542969 246.535156 48.414062 C 250.855469 53.285156 252.15625 60.089844 250.429688 68.820312 C 249.722656 72.417969 248.523438 75.707031 246.832031 78.6875 C 245.144531 81.667969 242.933594 84.394531 240.203125 86.867188 C 236.953125 89.863281 233.339844 92 229.363281 93.273438 C 225.386719 94.550781 220.324219 95.1875 214.171875 95.1875 L 200.21875 95.1875 L 196.359375 114.773438 L 180.070312 114.773438 L 194.601562 41.105469 L 225.921875 41.105469 " fill-opacity="1" fill-rule="nonzero"/></svg>