<svg width="122.88" height="101.8" xmlns="http://www.w3.org/2000/svg" data-name="Layer 1">
 <title>change</title>

 <g>
  <title>Layer 1</title>
  <path id="svg_1" d="m14,49.50802c-0.7,-10.22 -0.68,-18.51 2.81,-24.34s10.13,-9.25 21.58,-9.25l2,0l0,-5l0,0c0,-2 0.36,-3.21 1.25,-3.7s2.14,-0.09 3.66,1.36l11.96,11.37a3.44,3.44 0 0 1 1.35,2.76a4,4 0 0 1 -1.48,2.52l-11.76,11.26c-1.43,1.44 -2.63,1.87 -3.61,1.38s-1.35,-1.69 -1.33,-3.59l0,0l0,-6.08c-11.61,-0.44 -14.11,4.35 -14.51,10.72c-0.12,2 -0.06,4.23 0,6.46c0,1.44 0.08,2.89 0.08,4.12a1.18,1.18 0 0 1 -1.17,1.21l-10.1,0a1.17,1.17 0 0 1 -1.17,-1.17l0,-0.015l0.44,-0.015zm89.37,6.33c0.7,10.23 0.24,18.52 -3.25,24.35s-10.12,9.24 -21.58,9.24l-2.05,0l0,5l0,0c0,2 -0.35,3.21 -1.24,3.7s-2.14,0.09 -3.66,-1.36l-11.92,-11.37a3.42,3.42 0 0 1 -1.35,-2.69a4.06,4.06 0 0 1 1.48,-2.53l11.76,-11.31c1.43,-1.44 2.63,-1.88 3.61,-1.38s1.35,1.68 1.32,3.59l0,0l0,6.08c11.61,0.44 14.1,-4.35 14.5,-10.73c0.13,-2 0.07,-4.22 0,-6.46c0,-1.43 -0.08,-2.89 -0.08,-4.12a1.17,1.17 0 0 1 1.18,-1.14l10.1,0a1.18,1.18 0 0 1 1.18,1.17l0,-0.04z"/>
  <rect stroke="null" rx="5" fill="#F44336" id="svg_2" height="42.77611" width="51.74621" y="58.88902" x="0.25857"/>
  <rect stroke="null" rx="5" fill="#00A912" id="svg_4" height="42.77611" width="51.74621" y="0.64342" x="70.78486"/>
 </g>
</svg>